<?xml version="1.0" encoding="UTF-8" standalone="no"?>
<!-- Created with Inkscape (http://www.inkscape.org/) -->

<svg
   width="169.72055mm"
   height="129.79987mm"
   viewBox="0 0 169.72055 129.79987"
   version="1.1"
   id="svg1"
   xml:space="preserve"
   sodipodi:docname="pusa-08.04.svg"
   inkscape:version="1.4 (86a8ad7, 2024-10-11)"
   xmlns:inkscape="http://www.inkscape.org/namespaces/inkscape"
   xmlns:sodipodi="http://sodipodi.sourceforge.net/DTD/sodipodi-0.dtd"
   xmlns="http://www.w3.org/2000/svg"
   xmlns:svg="http://www.w3.org/2000/svg"><sodipodi:namedview
     id="namedview1"
     pagecolor="#ffffff"
     bordercolor="#000000"
     borderopacity="0.25"
     inkscape:showpageshadow="2"
     inkscape:pageopacity="0.0"
     inkscape:pagecheckerboard="0"
     inkscape:deskcolor="#d1d1d1"
     inkscape:document-units="mm"
     inkscape:zoom="2.6160731"
     inkscape:cx="352.24551"
     inkscape:cy="240.24558"
     inkscape:window-width="3840"
     inkscape:window-height="2054"
     inkscape:window-x="-11"
     inkscape:window-y="-11"
     inkscape:window-maximized="1"
     inkscape:current-layer="layer1" /><defs
     id="defs1" /><g
     id="layer1"
     style="display:inline"
     transform="translate(-22.586216,-25.204636)"><g
       id="g30"><path
         style="fill:#f2e8db;fill-opacity:1;stroke:#000000;stroke-width:2.1;stroke-dasharray:none;stroke-opacity:1"
         d="m 137.63182,58.063635 c -0.15,-1.254545 -0.44999,-3.763585 -1.14545,-6.395428 -0.69546,-2.631843 -1.78635,-5.386334 -2.64545,-7.281815 -0.8591,-1.895482 -1.48636,-2.931824 -2.30455,-4.07729 -0.81819,-1.145467 -1.82726,-2.399987 -2.95909,-3.613636 -1.13183,-1.21365 -2.38635,-2.386354 -3.69545,-3.422727 -1.3091,-1.036373 -2.67271,-1.936354 -4.18636,-2.768181 -1.51365,-0.831828 -3.17726,-1.595452 -4.8,-2.209095 -1.62274,-0.613644 -3.20453,-1.077272 -5.07273,-1.390913 -1.8682,-0.313642 -4.02274,-0.477277 -6.2864,-0.572733 -2.26366,-0.09546 -4.636341,-0.122728 -6.621913,0.04185 -1.985572,0.164577 -3.583894,0.520983 -5.089669,1.006822 -1.505774,0.48584 -2.91882,1.101054 -4.245716,1.754674 -1.326895,0.653621 -2.567482,1.345571 -3.723119,2.139036 -1.155637,0.793465 -2.226185,1.688349 -3.399208,2.691443 -1.173024,1.003094 -2.448382,2.114277 -3.524074,3.371387 -1.075692,1.25711 -1.951589,2.659998 -2.893454,4.356958 -0.941866,1.69696 -1.520517,3.187223 -2.11036,4.673596 -0.589843,1.486374 -0.731844,2.06164 -1.215742,3.658735 -0.492388,1.625115 -0.760931,2.661361 -1.054255,4.013928 -0.293324,1.352566 -0.572995,2.872824 -0.879018,4.666842 -0.306024,1.794019 -0.638369,3.861626 -0.906683,6.016194 -0.268315,2.154567 -0.472579,4.395919 -0.615627,6.245424 -0.143049,1.849505 -0.224863,3.306935 -0.269252,4.54279 -0.04439,1.235854 -0.05134,2.249984 0.37393,3.440513 0.425275,1.19053 1.28273,2.557316 1.916032,3.731669 0.633303,1.174353 1.042377,2.156132 1.467653,3.180755 0.425275,1.024623 0.866701,2.091966 1.169247,3.102953 0.302546,1.010986 0.466176,1.965494 0.561633,3.243859 0.09546,1.278366 0.122729,2.880441 0.158256,3.961376 0.03553,1.080934 0.128198,1.602399 0.101784,2.197062 -0.02809,0.632326 0.276439,1.109657 1.198934,1.322928 0.922496,0.213272 3.170797,-0.06511 4.428497,-0.07431 1.257699,-0.0092 2.586589,-0.05261 3.679593,-0.07432 1.093004,-0.02171 1.94999,-0.02171 2.626038,0.0624 0.676049,0.08411 1.171082,0.252319 1.617381,0.404605 0.446298,0.1523 0.843807,0.28865 1.179161,0.49899 0.335354,0.21033 0.6085,0.4946 0.850033,0.81109 0.241534,0.31648 0.451418,0.66513 0.71008,1.42911 0.258662,0.76399 0.566074,1.94324 1.01979,3.97836 0.453716,2.03512 1.053706,4.92598 1.899171,8.68966 0.845465,3.76368 1.936351,8.39995 2.590899,11.03178 0.654548,2.63182 0.550908,3.47363 1.123645,3.8009 0.572737,0.32727 1.857565,0.28301 2.52575,0.25574 0.63352,-0.009 0.822643,-0.0155 1.546063,-0.007 0.56106,0.007 1.10454,0.81817 1.69091,1.18636 0.58637,0.36818 1.15909,0.53181 1.55454,0.61363 0.39546,0.0818 0.61364,0.0818 0.88637,0.30001 0.27273,0.21818 0.6,0.65454 1.09091,1.03636 0.49092,0.38182 1.14545,0.70908 1.74545,0.87272 0.60001,0.16364 1.14545,0.16364 2.23638,0.24546 1.09093,0.0818 2.72726,0.24545 4.36364,0.32727 1.63638,0.0818 3.27271,0.0818 4.51362,0.0409 1.24092,-0.0409 2.08636,-0.12273 2.98637,-0.2591 0.90001,-0.13636 1.85454,-0.32727 2.76818,-0.51818 0.91365,-0.19091 1.78636,-0.38181 2.53637,-0.57273 0.75,-0.19091 1.37726,-0.38181 1.89545,-0.44999 0.51819,-0.0682 0.92726,-0.0136 1.70454,0.42273 0.77729,0.43637 1.92272,1.25454 3.21819,2.03182 1.29547,0.77728 2.7409,1.51363 3.99545,2.22273 1.25456,0.70909 2.31817,1.3909 3.32727,2.1 1.0091,0.7091 1.96363,1.44544 3.31365,2.20909 1.35002,0.76365 3.09544,1.55454 4.47272,2.16818 1.37728,0.61364 2.38635,1.05 3.83182,1.5 1.44548,0.45001 3.32726,0.91363 4.85454,1.15909 1.52729,0.24545 2.69999,0.27271 3.92727,0.28635 1.22729,0.0136 2.50909,0.0136 3.27272,-0.0546 0.76364,-0.0682 1.00909,-0.20454 1.78637,0.0546 0.77729,0.2591 2.08636,0.91363 3.35455,1.62273 1.2682,0.7091 2.49545,1.47272 3.58636,2.01818 1.09091,0.54546 2.04545,0.87273 2.97273,1.21364 0.92728,0.34091 1.82726,0.69545 2.67273,0.98181 0.84546,0.28637 1.63634,0.50455 2.48181,0.61364 0.84547,0.10909 1.74545,0.10909 2.48181,-0.0136 0.73637,-0.12273 1.30909,-0.36819 1.70454,-0.75001 0.39546,-0.38182 0.61364,-0.89999 0.73636,-1.36363 0.12273,-0.46364 0.14999,-0.87272 0.17726,-1.22727 0.0273,-0.35455 0.0545,-0.65454 0.40908,-0.9 0.35455,-0.24545 1.03635,-0.43636 1.56817,-0.76364 0.53183,-0.32728 0.91363,-0.7909 1.13182,-1.25454 0.21818,-0.46364 0.27272,-0.92727 0.16363,-1.4591 -0.10909,-0.53182 -0.38181,-1.13181 -0.40908,-1.67727 -0.0273,-0.54546 0.1909,-1.03636 0.51818,-1.60909 0.32727,-0.57273 0.76363,-1.22727 0.92727,-1.93636 0.16363,-0.7091 0.0545,-1.47273 -0.28637,-2.16819 -0.34092,-0.69546 -0.91363,-1.32272 -1.70455,-1.96363 -0.79092,-0.64092 -1.79999,-1.29545 -2.95909,-1.78636 -1.15911,-0.49092 -2.46817,-0.81818 -3.94092,-1.05 -1.47274,-0.23182 -3.10907,-0.36818 -4.60909,-0.40909 -1.50001,-0.0409 -2.86362,0.0136 -3.92727,0.15 -1.06364,0.13637 -1.82726,0.35455 -2.49544,0.46364 -0.66819,0.10909 -1.24091,0.10909 -1.55455,-0.76365 -0.31363,-0.87275 -0.36818,-2.61817 -0.50454,-4.54092 -0.13637,-1.92275 -0.35455,-4.02271 -0.49091,-5.68635 -0.13636,-1.66365 -0.19091,-2.8909 -0.54546,-4.70456 -0.35455,-1.81366 -1.00908,-4.21362 -1.63636,-6.27272 -0.62728,-2.05911 -1.22727,-3.77726 -2.01819,-5.79547 -0.79092,-2.0182 -1.77272,-4.33633 -2.89091,-6.409073 -1.11819,-2.072744 -2.37272,-3.899979 -3.79091,-5.768178 -1.4182,-1.868199 -2.99999,-3.777252 -4.61257,-5.443442 -1.61259,-1.66619 -3.25587,-3.089422 -4.65025,-4.373776 -1.39438,-1.284353 -2.5398,-2.429776 -3.66656,-3.73287 -1.12675,-1.303095 -2.23472,-2.763726 -2.98126,-4.097581 -0.74654,-1.333854 -1.13156,-2.540785 -1.61044,-4.480652 -0.47888,-1.939866 -1.05159,-4.612539 -1.48796,-6.862558 -0.43637,-2.25002 -0.73636,-4.077256 -0.88636,-4.990892 -0.15,-0.913637 -0.14999,-0.913625 -0.29999,-2.16817 z"
         id="path3"
         sodipodi:nodetypes="ssssssssssssssssssssssssssssssssssssssssssscssssssssssssssssssssscscsssssssssssssssscsssssssssssssssssssssss" /><path
         style="fill:#000000;fill-opacity:1;stroke:#000000;stroke-width:1;stroke-dasharray:none;stroke-opacity:1"
         d="m 81.762434,58.210957 c 0.04339,-0.16392 0.130172,-0.49176 0.267578,-0.795497 0.137406,-0.303737 0.325428,-0.58336 0.561669,-0.843706 0.236242,-0.260347 0.520685,-0.5014 0.819602,-0.691839 0.298918,-0.190438 0.612287,-0.330249 0.928077,-0.421853 0.315791,-0.0916 0.633981,-0.134993 0.966647,-0.144635 0.332666,-0.0096 0.679784,0.01446 0.98111,0.08437 0.301326,0.06991 0.556845,0.185615 0.797906,0.35918 0.241061,0.173565 0.467651,0.404976 0.662912,0.643627 0.19526,0.238652 0.359176,0.484527 0.506223,0.761748 0.147047,0.277221 0.277216,0.585771 0.354356,0.911204 0.07714,0.325433 0.101245,0.66773 0.11571,1.082357 0.01446,0.414628 0.01929,0.901557 -0.07714,1.361983 -0.09642,0.460426 -0.294089,0.894325 -0.544794,1.265559 -0.250705,0.371234 -0.554432,0.679784 -0.923258,0.937719 -0.368825,0.257936 -0.802721,0.465241 -1.280024,0.571309 -0.477303,0.106067 -0.997979,0.110891 -1.443943,0.05304 -0.445964,-0.05785 -0.817186,-0.178382 -1.14503,-0.354358 -0.327844,-0.175976 -0.612287,-0.407387 -0.872633,-0.73041 -0.260346,-0.323023 -0.52392,-0.726471 -0.626753,-1.017266 -0.09888,-0.279629 -0.12746,-0.424264 -0.173564,-0.824429 -0.04585,-0.397995 -0.05746,-1.057465 -0.01928,-1.439117 0.02697,-0.269565 0.07288,-0.515896 0.14463,-0.768985 z"
         id="path6"
         sodipodi:nodetypes="ssssscssssssssssssssssss" /><path
         style="fill:#000000;fill-opacity:1;stroke:#000000;stroke-width:1;stroke-dasharray:none;stroke-opacity:1"
         d="m 107.72933,58.652098 c 0.0723,-0.383286 0.17838,-0.677378 0.31578,-0.954599 0.13741,-0.277221 0.30615,-0.53756 0.56408,-0.805137 0.25794,-0.267578 0.60506,-0.542382 0.9546,-0.715945 0.34954,-0.173563 0.70148,-0.24588 1.03896,-0.282038 0.33749,-0.03616 0.6605,-0.03616 0.95942,10e-7 0.29891,0.03616 0.57371,0.108475 0.85817,0.233829 0.28445,0.125353 0.57854,0.303734 0.84129,0.542384 0.26276,0.238651 0.49417,0.537557 0.68943,0.848527 0.19526,0.310971 0.30966,0.625044 0.41573,0.86851 0.10606,0.243466 0.1591,0.407392 0.24719,0.874351 0.0853,0.452098 0.0771,1.210111 0.0699,1.687409 -0.0428,0.477297 -0.0823,0.617203 -0.15699,0.824518 -0.0747,0.207315 -0.14916,0.48202 -0.29138,0.708619 -0.14223,0.226598 -0.32543,0.467653 -0.50382,0.65809 -0.17838,0.190437 -0.35194,0.330251 -0.56649,0.455603 -0.21454,0.125352 -0.47006,0.236237 -0.77379,0.306144 -0.30374,0.06991 -0.65568,0.09883 -1.00763,0.103654 -0.35195,0.0048 -0.70389,-0.01446 -1.01727,-0.05544 -0.31338,-0.04098 -0.58818,-0.103654 -0.84371,-0.231417 -0.25552,-0.127764 -0.49176,-0.320612 -0.72317,-0.576136 -0.23142,-0.255523 -0.45802,-0.57372 -0.62676,-0.89674 -0.16874,-0.323021 -0.27962,-0.650854 -0.36882,-1.029321 -0.0892,-0.378467 -0.15668,-0.807546 -0.17115,-1.258332 -0.0145,-0.450785 0.0241,-0.923247 0.0964,-1.306532 z"
         id="path7"
         sodipodi:nodetypes="cssssssssssccsssscsssssccc" /><path
         style="fill:#000000;fill-opacity:1;stroke:#000000;stroke-width:1;stroke-dasharray:none;stroke-opacity:1"
         d="m 107.12427,49.896828 c 0.0795,-0.132583 0.23864,-0.397746 0.42426,-0.638808 0.18562,-0.241062 0.39775,-0.458012 0.6364,-0.653271 0.23865,-0.195259 0.50381,-0.36882 0.74728,-0.515865 0.24347,-0.147046 0.46524,-0.267572 0.6822,-0.351944 0.21695,-0.08437 0.42908,-0.132583 0.6846,-0.161511 0.25553,-0.02893 0.55444,-0.03857 0.79068,-0.03616 0.23624,0.0024 0.4098,0.01687 0.57372,0.06267 0.16392,0.0458 0.3182,0.122941 0.45078,0.221775 0.13258,0.09883 0.24347,0.219361 0.30856,0.397747 0.0651,0.178386 0.0844,0.41462 0.0603,0.617112 -0.0241,0.202493 -0.0916,0.371229 -0.20489,0.53756 -0.1133,0.166332 -0.2724,0.330251 -0.49177,0.486941 -0.21936,0.156689 -0.49898,0.306142 -0.73522,0.431495 -0.23624,0.125352 -0.42909,0.226597 -0.7039,0.337485 -0.27481,0.110887 -0.63157,0.231414 -0.96905,0.33507 -0.33749,0.103656 -0.65568,0.190435 -0.94495,0.236238 -0.28928,0.0458 -0.54962,0.05063 -0.76899,0.03857 -0.21936,-0.01205 -0.39774,-0.04098 -0.52068,-0.127761 -0.12294,-0.08678 -0.19043,-0.231418 -0.20972,-0.390514 -0.0193,-0.159097 0.01,-0.332666 0.0362,-0.450785 0.0265,-0.118119 0.0506,-0.180792 0.0627,-0.212129 0.0121,-0.03134 0.012,-0.03134 0.0915,-0.163921 z"
         id="path8" /><path
         style="fill:#000000;fill-opacity:1;stroke:#000000;stroke-width:1;stroke-dasharray:none;stroke-opacity:1"
         d="m 87.996223,47.855058 c 0.101245,0.09642 0.303735,0.289271 0.462836,0.462835 0.1591,0.173564 0.274806,0.327839 0.349534,0.467655 0.07473,0.139815 0.108476,0.265165 0.144636,0.390516 0.03616,0.125351 0.07473,0.2507 0.08678,0.421854 0.01205,0.171154 -0.0024,0.388101 -0.07232,0.552024 -0.06991,0.163923 -0.195256,0.274807 -0.344715,0.344714 -0.149459,0.06991 -0.323017,0.09883 -0.511045,0.08678 -0.188027,-0.01205 -0.390513,-0.06509 -0.595415,-0.132583 -0.204903,-0.0675 -0.41221,-0.149456 -0.629166,-0.24588 -0.216955,-0.09643 -0.443547,-0.20731 -0.660502,-0.318198 -0.216956,-0.110889 -0.424263,-0.221774 -0.617112,-0.339895 -0.192849,-0.11812 -0.371228,-0.243468 -0.527918,-0.385695 -0.156689,-0.142226 -0.291679,-0.30132 -0.392925,-0.45319 -0.101246,-0.151869 -0.168742,-0.296502 -0.212132,-0.438728 -0.04339,-0.142227 -0.06267,-0.282037 -0.01687,-0.429085 0.0458,-0.147047 0.156689,-0.301322 0.262756,-0.414621 0.106067,-0.113298 0.207309,-0.185615 0.356767,-0.243469 0.149458,-0.05785 0.347123,-0.101244 0.511046,-0.127761 0.163924,-0.02652 0.294089,-0.03616 0.467654,-0.01447 0.173565,0.0217 0.390514,0.07473 0.583363,0.122939 0.19285,0.04821 0.361588,0.0916 0.56649,0.190437 0.204903,0.09884 0.445957,0.253111 0.566487,0.33025 0.120529,0.07714 0.120523,0.07714 0.221767,0.173566 z"
         id="path9" /><path
         style="fill:#000000;fill-opacity:1;stroke:#000000;stroke-width:0.8;stroke-dasharray:none;stroke-opacity:1"
         d="m 92.67277,73.773736 c -0.226595,-0.207311 -0.679787,-0.621934 -1.038967,-0.969061 -0.35918,-0.347127 -0.624339,-0.62675 -0.829241,-0.89674 -0.204902,-0.269989 -0.349534,-0.530327 -0.503814,-0.788263 -0.15428,-0.257936 -0.318197,-0.513453 -0.424264,-0.882278 -0.106067,-0.368826 -0.154277,-0.850934 -0.163919,-1.222168 -0.0096,-0.371235 0.01928,-0.631572 0.106066,-0.906383 0.08678,-0.274811 0.231415,-0.564076 0.397748,-0.78103 0.166333,-0.216955 0.354354,-0.361587 0.564078,-0.48694 0.209724,-0.125352 0.441137,-0.231415 0.694253,-0.306144 0.253115,-0.07473 0.527916,-0.118117 0.826832,-0.147045 0.298916,-0.02893 0.62193,-0.04339 1.393332,-0.04821 0.771402,-0.0048 1.991136,4e-6 2.798687,0.05063 0.807552,0.05062 1.20288,0.147045 1.547598,0.282039 0.344717,0.134995 0.638804,0.308554 0.899151,0.527922 0.260346,0.219367 0.486938,0.484526 0.61952,0.725587 0.132582,0.241061 0.17115,0.458011 0.202488,0.703894 0.03134,0.245882 0.05544,0.520684 0.03375,0.785852 -0.0217,0.265169 -0.08919,0.520684 -0.147044,0.74005 -0.05786,0.219365 -0.106066,0.402566 -0.202492,0.602648 -0.09643,0.200082 -0.241059,0.41703 -0.383285,0.605058 -0.142226,0.188029 -0.282036,0.347124 -0.445958,0.508635 -0.163922,0.161511 -0.351944,0.325428 -0.595417,0.542384 -0.243473,0.216956 -0.542381,0.486938 -0.800315,0.699071 -0.257935,0.212133 -0.474885,0.366409 -0.723179,0.530331 -0.248293,0.163921 -0.527918,0.337481 -0.727998,0.477296 -0.200081,0.139815 -0.320607,0.245879 -0.441138,0.356767 -0.12053,0.110888 -0.241059,0.226596 -0.294091,0.373644 -0.05303,0.147048 -0.03857,0.325426 -0.02652,0.513454 0.01205,0.188028 0.0217,0.385692 0.05303,0.602647 0.03134,0.216955 0.08437,0.45319 0.173564,0.65086 0.08919,0.197669 0.214541,0.356766 0.342303,0.52792 0.127762,0.171153 0.257931,0.354354 0.395336,0.523098 0.137406,0.168744 0.282039,0.323019 0.436318,0.460424 0.15428,0.137405 0.318194,0.257931 0.49417,0.363998 0.175975,0.106067 0.363998,0.197667 0.535152,0.282038 0.171153,0.08437 0.325429,0.16151 0.48935,0.229007 0.163921,0.0675 0.337483,0.12535 0.966658,0.159099 0.629176,0.03375 1.713918,0.04339 2.415398,0.02411 0.70149,-0.01928 1.01968,-0.0675 1.28485,-0.12776 0.26516,-0.06027 0.47729,-0.132582 0.70148,-0.226597 0.22419,-0.09402 0.46042,-0.20972 0.65086,-0.327841 0.19044,-0.11812 0.34401,-0.193951 0.50793,-0.343408 0.16392,-0.149457 0.39182,-0.363594 0.59432,-0.554034 0.20249,-0.19044 0.37062,-0.401866 0.56105,-0.597124 0.19044,-0.195258 0.34954,-0.383283 0.51346,-0.595417 0.16392,-0.212134 0.33266,-0.448368 0.49658,-0.667733 0.16392,-0.219364 0.32302,-0.421851 0.44837,-0.571307 0.12535,-0.149455 0.21696,-0.245884 0.32784,-0.320612 0.11089,-0.07473 0.24106,-0.127761 0.35435,-0.149457 0.11329,-0.0217 0.20973,-0.01205 0.27964,0.02411 0.0699,0.03616 0.11331,0.09884 0.13741,0.190445 0.0241,0.0916 0.0379,0.238952 0.0282,0.376352 -0.01,0.1374 -0.0158,0.273794 -0.0279,0.399143 -0.012,0.125349 -0.0388,0.212837 -0.13771,0.410508 -0.0988,0.19767 -0.2965,0.49658 -0.45801,0.725587 -0.16151,0.229007 -0.28686,0.388105 -0.45078,0.583364 -0.16392,0.195259 -0.36641,0.426673 -0.53515,0.621932 -0.16874,0.195259 -0.30373,0.354357 -0.42667,0.491761 -0.12294,0.137404 -0.23383,0.25311 -0.34954,0.354355 -0.11571,0.101244 -0.23624,0.188027 -0.40498,0.306146 -0.16874,0.11812 -0.38569,0.267576 -0.56648,0.378464 -0.1808,0.110888 -0.32544,0.183207 -0.49418,0.253113 -0.16874,0.06991 -0.36159,0.137403 -0.55926,0.202489 -0.19767,0.06509 -0.40015,0.127759 -0.62193,0.188025 -0.22178,0.06027 -0.46283,0.118118 -0.6822,0.156687 -0.21936,0.03857 -0.41703,0.05785 -0.64603,0.07232 -0.22901,0.01446 -0.48935,0.02411 -0.78827,0.02652 -0.29892,0.0024 -0.63639,-0.0024 -0.88227,-0.0072 -0.245882,-0.0048 -0.400161,-0.0096 -0.590598,-0.01688 -0.190438,-0.0072 -0.417029,-0.01688 -0.648448,-0.03375 -0.231418,-0.01688 -0.467652,-0.04098 -0.701482,-0.08919 -0.233829,-0.04821 -0.465242,-0.120529 -0.703894,-0.204901 -0.238652,-0.08437 -0.484525,-0.180794 -0.723177,-0.289272 -0.238651,-0.108478 -0.470064,-0.229005 -0.696661,-0.347124 -0.226597,-0.11812 -0.430489,-0.260645 -0.642623,-0.434209 -0.212133,-0.173565 -0.432498,-0.378159 -0.608472,-0.583062 -0.175975,-0.204902 -0.325429,-0.383282 -0.458012,-0.530329 -0.132584,-0.147047 -0.24829,-0.262753 -0.349535,-0.330249 -0.101245,-0.0675 -0.188026,-0.08678 -0.274806,-0.05062 -0.08678,0.03616 -0.173564,0.127763 -0.291684,0.241063 -0.118121,0.1133 -0.231816,0.24829 -0.349936,0.373641 -0.11812,0.125351 -0.240659,0.241058 -0.339494,0.351946 -0.09884,0.110888 -0.20972,0.199073 -0.347125,0.302729 -0.137405,0.103657 -0.301322,0.22278 -0.518277,0.319204 -0.216955,0.09642 -0.486936,0.188025 -0.764157,0.277218 -0.277221,0.08919 -0.561667,0.175974 -0.858172,0.224186 -0.296505,0.04821 -0.605056,0.05786 -0.901561,0.06268 -0.296505,0.0048 -0.580951,0.0048 -0.865403,-0.0024 -0.284452,-0.0072 -0.568898,-0.0217 -0.809959,-0.04821 -0.24106,-0.02652 -0.438725,-0.06508 -0.648449,-0.115708 -0.209723,-0.05062 -0.431493,-0.113297 -0.636394,-0.16392 -0.204902,-0.05062 -0.392926,-0.124948 -0.583364,-0.211733 -0.190438,-0.08678 -0.383281,-0.186015 -0.580951,-0.335473 C 85.074605,78.676947 84.87212,78.51303 84.68168,78.332234 84.491241,78.151437 84.312861,77.953773 84.144117,77.768156 83.975374,77.582539 83.816278,77.40898 83.676463,77.223363 83.536648,77.037745 83.41612,76.84008 83.314875,76.659284 83.21363,76.478488 83.131672,76.31457 83.052121,76.109668 c -0.07955,-0.204903 -0.156688,-0.468657 -0.195257,-0.704897 -0.03857,-0.23624 -0.03857,-0.444952 -0.04098,-0.702888 -0.0024,-0.257936 -0.0072,-0.547201 -0.0096,-0.812369 -0.0024,-0.265167 -0.0024,-0.506223 0.0096,-0.689428 0.01205,-0.183205 0.03616,-0.308554 0.08437,-0.402568 0.04821,-0.09401 0.12053,-0.15669 0.236242,-0.180795 0.115712,-0.02411 0.292684,-0.03642 0.422857,0.03586 0.130173,0.07232 0.213537,0.229308 0.278623,0.39564 0.06508,0.166332 0.09401,0.368819 0.113297,0.566488 0.01928,0.197669 0.02893,0.390515 0.0458,0.605059 0.01687,0.214543 0.04098,0.450777 0.0892,0.691839 0.04821,0.241062 0.12053,0.486936 0.23624,0.742462 0.115711,0.255525 0.274805,0.520685 0.436317,0.752104 0.161511,0.23142 0.325428,0.429083 0.48935,0.605058 0.163922,0.175975 0.32784,0.33025 0.474887,0.458013 0.147047,0.127762 0.277217,0.229006 0.431495,0.332661 0.154278,0.103656 0.33266,0.20972 0.518279,0.308556 0.185618,0.09884 0.378459,0.190436 0.57613,0.257933 0.197671,0.0675 0.400157,0.110886 0.600238,0.147044 0.20008,0.03616 0.397746,0.06508 0.662914,0.07473 0.265169,0.0096 0.597822,-2e-6 0.8654,-0.02893 0.267578,-0.02893 0.470063,-0.07714 0.682197,-0.147048 0.212134,-0.06991 0.433906,-0.161509 0.650861,-0.272397 0.216954,-0.110888 0.429083,-0.241058 0.708715,-0.450782 0.279631,-0.209724 0.626749,-0.49899 0.891916,-0.749693 0.265166,-0.250703 0.44837,-0.462832 0.590595,-0.672556 0.142226,-0.209723 0.243468,-0.41703 0.332661,-0.588183 0.08919,-0.171154 0.166331,-0.306145 0.216954,-0.474888 0.05062,-0.168742 0.07473,-0.371229 0.03375,-0.539971 -0.04098,-0.168742 -0.147044,-0.303732 -0.255522,-0.412209 -0.108477,-0.108478 -0.219362,-0.190436 -0.274805,-0.231416 -0.05544,-0.04098 -0.05551,-0.04097 -0.282104,-0.248283 z"
         id="path10"
         sodipodi:nodetypes="csssscssssscsssssssssssssssssssssssssssssssssssssssscccsssssssssssssscssssssssssssssssscsssssssssssssscsscsssssssssssscssssssssssscc" /><path
         style="fill:#000000;fill-opacity:1;stroke:#000000;stroke-width:0.5;stroke-dasharray:none;stroke-opacity:1"
         d="m 114.74414,70.307306 c 0.30856,-0.04339 0.92567,-0.130172 1.59583,-0.173563 0.67015,-0.04339 1.39331,-0.04339 2.22739,0.0096 0.83407,0.05303 1.779,0.159098 2.7095,0.313377 0.93049,0.154279 1.8465,0.356765 2.74325,0.583363 0.89675,0.226598 1.77418,0.477293 2.46362,0.708712 0.68943,0.23142 1.19083,0.44355 1.49456,0.64122 0.30374,0.19767 0.4098,0.38087 0.46284,0.559256 0.053,0.178386 0.053,0.351944 -0.0289,0.458012 -0.082,0.106068 -0.24588,0.144635 -0.43391,0.183205 -0.18803,0.03857 -0.40016,0.07714 -0.73282,0.01446 -0.33267,-0.06268 -0.78585,-0.226594 -1.31619,-0.385694 -0.53033,-0.1591 -1.13779,-0.313375 -1.65848,-0.448369 -0.52069,-0.134994 -0.95459,-0.250701 -1.34993,-0.337482 -0.39534,-0.08678 -0.7521,-0.144635 -1.16673,-0.216954 -0.41463,-0.07232 -0.88709,-0.159098 -1.39814,-0.241059 -0.51105,-0.08196 -1.06066,-0.159099 -1.62474,-0.202491 -0.56409,-0.04339 -1.14262,-0.05303 -1.75973,-0.08196 -0.61712,-0.02893 -1.27279,-0.07714 -1.75491,-0.144635 -0.48212,-0.0675 -0.79067,-0.154278 -0.94977,-0.289282 -0.15909,-0.135005 -0.16873,-0.318188 -0.11569,-0.477287 0.053,-0.159099 0.16875,-0.29409 0.2266,-0.361586 0.0579,-0.0675 0.0578,-0.06749 0.36638,-0.110885 z"
         id="path11" /><path
         style="fill:#000000;fill-opacity:1;stroke:#000000;stroke-width:0.499999;stroke-dasharray:none;stroke-opacity:1"
         d="m 114.57058,74.111217 c 0.30856,-0.05785 0.86781,-0.05785 1.50904,0.04821 0.64122,0.106068 1.36439,0.318198 2.09239,0.549618 0.72801,0.231419 1.46081,0.482114 2.10203,0.708713 0.64123,0.226598 1.19083,0.429082 1.77902,0.708715 0.5882,0.279633 1.21493,0.636388 1.82241,0.98834 0.60748,0.351953 1.19565,0.69907 1.69706,1.01727 0.5014,0.3182 0.91602,0.607468 1.20047,0.843707 0.28445,0.236239 0.43872,0.419438 0.52551,0.588183 0.0868,0.168744 0.10609,0.323017 0.10609,0.438726 0,0.11571 -0.0193,0.192848 -0.053,0.245879 -0.0337,0.05303 -0.082,0.08195 -0.14947,0.09642 -0.0675,0.01447 -0.15428,0.01447 -0.2507,-0.0048 -0.0964,-0.01929 -0.20249,-0.05785 -0.4532,-0.188026 -0.2507,-0.130174 -0.64603,-0.351944 -1.01245,-0.5689 -0.36641,-0.216956 -0.70388,-0.429081 -1.15226,-0.703892 -0.44837,-0.27481 -1.00762,-0.612289 -1.456,-0.867814 -0.44837,-0.255525 -0.78584,-0.429081 -1.11851,-0.588181 -0.33266,-0.159101 -0.6605,-0.303736 -1.02692,-0.47248 -0.36641,-0.168744 -0.77138,-0.361587 -1.15225,-0.525508 -0.38088,-0.163921 -0.73764,-0.298912 -1.05584,-0.4098 -0.3182,-0.110888 -0.59782,-0.197666 -0.89674,-0.294092 -0.29892,-0.09642 -0.61711,-0.202488 -0.96424,-0.294092 -0.34713,-0.0916 -0.72317,-0.168741 -1.02209,-0.255523 -0.29891,-0.08678 -0.52068,-0.183202 -0.72318,-0.260343 -0.20249,-0.07714 -0.38569,-0.134993 -0.51104,-0.216955 -0.12535,-0.08196 -0.19284,-0.188027 -0.19766,-0.298923 -0.005,-0.110896 0.053,-0.226585 0.36158,-0.284439 z"
         id="path12" /><path
         style="fill:#000000;fill-opacity:1;stroke:#000000;stroke-width:0.499999;stroke-dasharray:none;stroke-opacity:1"
         d="m 123.94805,84.75661 c -0.0335,-0.08656 -0.10042,-0.259646 -0.20719,-0.443357 -0.10677,-0.183711 -0.25336,-0.378026 -0.44257,-0.597914 -0.1892,-0.219889 -0.42102,-0.46534 -0.65455,-0.69716 -0.23352,-0.231819 -0.46874,-0.449996 -0.71591,-0.685228 -0.24716,-0.235232 -0.50624,-0.487497 -0.77727,-0.721023 -0.27102,-0.233525 -0.55397,-0.448295 -0.88465,-0.707388 -0.33069,-0.259093 -0.70909,-0.562495 -1.06364,-0.818179 -0.35455,-0.255684 -0.68523,-0.463637 -1.04489,-0.700569 -0.35966,-0.236933 -0.74829,-0.502837 -1.0858,-0.721022 -0.3375,-0.218184 -0.62385,-0.388631 -0.90681,-0.547157 -0.28296,-0.158526 -0.5625,-0.305116 -0.83693,-0.429549 -0.27444,-0.124433 -0.54375,-0.226701 -0.78409,-0.318748 -0.24035,-0.09205 -0.45171,-0.173864 -0.60509,-0.199439 -0.15338,-0.02558 -0.24889,0.0051 -0.3256,0.06139 -0.0767,0.05626 -0.13465,0.138057 -0.1517,0.2267 -0.017,0.08864 0.007,0.184078 0.0494,0.291477 0.0426,0.107399 0.10398,0.226702 0.18921,0.337499 0.0852,0.110796 0.19432,0.213067 0.375,0.323863 0.18069,0.110796 0.43295,0.230108 0.66648,0.36136 0.23352,0.131252 0.44829,0.274433 0.64943,0.405685 0.20114,0.131252 0.38863,0.250563 0.60341,0.392042 0.21477,0.141478 0.45682,0.305116 0.65625,0.439776 0.19943,0.134659 0.35625,0.240342 0.51647,0.352842 0.16023,0.112499 0.32387,0.231818 0.50285,0.371592 0.17898,0.139775 0.37329,0.299995 0.55398,0.427837 0.18068,0.127842 0.34772,0.223293 0.54886,0.359659 0.20114,0.136365 0.43636,0.313634 0.69034,0.519887 0.25398,0.206253 0.5267,0.441475 0.78239,0.681819 0.25568,0.240344 0.49431,0.485792 0.69886,0.690342 0.20455,0.204549 0.375,0.368181 0.525,0.516478 0.15,0.148296 0.27954,0.281245 0.40398,0.40227 0.12443,0.121025 0.24374,0.230111 0.39545,0.357955 0.15171,0.127845 0.33579,0.274428 0.49091,0.380111 0.15511,0.105683 0.28125,0.170459 0.41591,0.206253 0.13466,0.03579 0.27784,0.04261 0.38863,0.02216 0.11079,-0.02045 0.18921,-0.06818 0.24887,-0.121022 0.0597,-0.05284 0.10056,-0.110792 0.12551,-0.167427 0.025,-0.05664 0.034,-0.111937 0.0385,-0.139592 0.004,-0.02765 0.004,-0.02766 -0.029,-0.114215 z"
         id="path13" /><path
         style="fill:#000000;fill-opacity:1;stroke:#000000;stroke-width:0.499999;stroke-dasharray:none;stroke-opacity:1"
         d="M 69.899999,66.252273 C 69.773863,66.231818 69.52159,66.190909 69.282952,66.15 c -0.238638,-0.04091 -0.463635,-0.08182 -0.918755,-0.13466 -0.455121,-0.05284 -1.140333,-0.117612 -1.55113,-0.156817 -0.410797,-0.03921 -0.547159,-0.05284 -0.693751,-0.06136 -0.146592,-0.0085 -0.303408,-0.01192 -0.458523,-0.01192 -0.155115,0 -0.30852,0.0034 -0.494318,0.0085 -0.185798,0.0051 -0.403977,0.01193 -0.596591,0.02045 -0.192615,0.0085 -0.359658,0.01875 -0.535228,0.02386 -0.17557,0.0051 -0.359656,0.0051 -0.54034,0.02046 -0.180683,0.01534 -0.357953,0.04603 -0.536932,0.06648 -0.178979,0.02045 -0.359656,0.03068 -0.524999,0.05114 -0.165343,0.02045 -0.315338,0.05114 -0.449999,0.08523 -0.134662,0.03409 -0.253979,0.07159 -0.386934,0.110797 -0.132956,0.0392 -0.279544,0.08011 -0.419318,0.112499 -0.139774,0.03239 -0.272725,0.05625 -0.451705,0.1125 -0.17898,0.05625 -0.403975,0.144886 -0.530111,0.209658 -0.126136,0.06477 -0.153412,0.105685 -0.172161,0.148299 -0.01875,0.04261 -0.02897,0.08692 -0.02045,0.13806 0.0085,0.05114 0.0358,0.109097 0.0733,0.161939 0.0375,0.05284 0.08523,0.100567 0.161932,0.131248 0.0767,0.03068 0.182386,0.04432 0.298295,0.06477 0.11591,0.02046 0.242047,0.04773 0.397161,0.05455 0.155113,0.0068 0.339203,-0.0068 0.496021,-0.01364 0.156819,-0.0068 0.286362,-0.0068 0.438068,-0.01023 0.151706,-0.0034 0.325568,-0.01022 0.484091,-0.03068 0.158524,-0.02045 0.301704,-0.05454 0.490911,-0.08693 0.189207,-0.03239 0.424429,-0.06307 0.642613,-0.09034 0.218185,-0.02727 0.419316,-0.05114 0.630681,-0.06648 0.211365,-0.01534 0.432952,-0.02216 0.676705,-0.02557 0.243753,-0.0034 0.509659,-0.0034 0.760229,0.0017 0.25057,0.0051 0.485792,0.01534 0.736363,0.02898 0.250571,0.01364 0.516474,0.03068 0.744885,0.05114 0.228412,0.02045 0.419315,0.04432 0.70398,0.08011 0.284664,0.0358 0.663064,0.08352 1.00909,0.129546 0.346025,0.04602 0.659656,0.09034 0.917045,0.136362 0.257388,0.04602 0.458522,0.09375 0.659659,0.139773 0.201137,0.04602 0.402272,0.09034 0.634091,0.129546 0.23182,0.03921 0.494316,0.0733 0.801137,0.122727 0.306821,0.04943 0.65795,0.114203 1.000569,0.175568 0.342619,0.06136 0.676702,0.119317 1.014205,0.178977 0.337503,0.05966 0.678404,0.121022 1.009089,0.182386 0.330685,0.06136 0.651133,0.122728 0.978409,0.187501 0.327276,0.06477 0.661361,0.132954 0.963069,0.196022 0.301707,0.06307 0.57102,0.121022 0.778976,0.163636 0.207955,0.04261 0.354544,0.06989 0.497727,0.08523 0.143183,0.01534 0.28295,0.01876 0.398858,0.0051 0.115908,-0.01363 0.207957,-0.04432 0.274434,-0.09205 0.06648,-0.04773 0.107388,-0.112501 0.12273,-0.199435 0.01534,-0.08693 0.0051,-0.196019 -0.02557,-0.294885 -0.03068,-0.09887 -0.08182,-0.187498 -0.182385,-0.265907 -0.100568,-0.07841 -0.250567,-0.146591 -0.439773,-0.216478 -0.189205,-0.06989 -0.417613,-0.141477 -0.685228,-0.218182 -0.267616,-0.07671 -0.57443,-0.158522 -0.857387,-0.219886 -0.282957,-0.06136 -0.542043,-0.102272 -0.88807,-0.161932 -0.346027,-0.05966 -0.778973,-0.138068 -1.167613,-0.201137 -0.38864,-0.06307 -0.732949,-0.110795 -1.08068,-0.170455 -0.347731,-0.05966 -0.698861,-0.131249 -1.087502,-0.202841 -0.388641,-0.07159 -0.814769,-0.143181 -1.213636,-0.219886 -0.398867,-0.07671 -0.770451,-0.158521 -0.956247,-0.19943 -0.185795,-0.04091 -0.185803,-0.04093 -0.311939,-0.06138 z"
         id="path15" /><path
         style="fill:#000000;fill-opacity:1;stroke:#000000;stroke-width:0.499999;stroke-dasharray:none;stroke-opacity:1"
         d="m 69.681818,72.460226 c 0.197727,0.01023 0.593181,0.03068 0.995457,0.04772 0.402277,0.01704 0.81136,0.03068 1.234091,0.0375 0.422732,0.0068 0.859088,0.0068 1.271592,0.0068 0.412504,0 0.801132,0 1.179544,0.0068 0.378413,0.0068 0.746588,0.02045 1.159092,0.03409 0.412504,0.01364 0.869315,0.02727 1.278408,0.03409 0.409094,0.0068 0.770451,0.0068 1.077273,-0.04091 0.306822,-0.04773 0.559088,-0.143181 0.692043,-0.245454 0.132954,-0.102273 0.14659,-0.211362 0.122727,-0.33409 -0.02386,-0.122729 -0.08523,-0.259092 -0.180683,-0.364774 -0.09546,-0.105683 -0.224999,-0.180682 -0.37841,-0.238636 -0.15341,-0.05796 -0.330681,-0.09886 -0.555683,-0.119318 -0.225002,-0.02045 -0.497724,-0.02045 -0.838636,-0.02386 -0.340913,-0.0034 -0.749996,-0.01023 -1.118182,-0.03068 -0.368187,-0.02045 -0.695453,-0.05454 -1.090911,-0.07159 -0.395458,-0.01704 -0.859087,-0.01704 -1.332954,-0.01023 -0.473868,0.0068 -0.95795,0.02046 -1.336362,0.03068 -0.378412,0.01023 -0.651134,0.01704 -1.015911,0.02045 -0.364778,0.0034 -0.821586,0.0034 -1.172725,-0.0068 -0.351139,-0.01023 -0.596588,-0.03068 -0.872729,-0.04091 -0.27614,-0.01023 -0.58295,-0.01023 -0.93409,-0.01023 -0.351141,0 -0.746587,0 -1.114772,0.0068 -0.368185,0.0068 -0.709088,0.02046 -1.121593,0.03409 -0.412505,0.01364 -0.896587,0.02727 -1.370455,0.04432 -0.473869,0.01705 -0.937496,0.0375 -1.503412,0.06819 -0.565916,0.03068 -1.234084,0.07159 -1.646586,0.146592 -0.412501,0.075 -0.569316,0.18409 -0.674998,0.276136 -0.105681,0.09204 -0.160225,0.167044 -0.18409,0.235224 -0.02387,0.06818 -0.01705,0.129548 0.0068,0.187503 0.02386,0.05796 0.06477,0.1125 0.126136,0.160227 0.06136,0.04773 0.143182,0.08864 0.242045,0.126136 0.09886,0.0375 0.214769,0.07159 0.422728,0.08182 0.207959,0.01023 0.507952,-0.0034 0.784091,-0.01023 0.276139,-0.0068 0.528406,-0.0068 0.920457,-0.02045 0.392052,-0.01364 0.923859,-0.04091 1.367044,-0.075 0.443185,-0.03409 0.797724,-0.075 1.234092,-0.09546 0.436368,-0.02045 0.954542,-0.02045 1.353408,-0.02045 0.398866,0 0.678406,0 1.029546,0.01705 0.351141,0.01705 0.77386,0.05114 1.077271,0.07841 0.303411,0.02727 0.487498,0.04773 0.579544,0.05795 0.09204,0.01023 0.09205,0.01022 0.289777,0.02045 z"
         id="path16" /><path
         style="fill:#000000;fill-opacity:1;stroke:#000000;stroke-width:0.499999;stroke-dasharray:none;stroke-opacity:1"
         d="m 69.613056,76.796617 c 0.144636,-0.03375 0.433904,-0.101245 0.69425,-0.171153 0.260346,-0.06991 0.491759,-0.142224 0.747284,-0.20731 0.255526,-0.06509 0.53515,-0.122939 0.800316,-0.195258 0.265167,-0.07232 0.515866,-0.159099 0.819603,-0.24347 0.303738,-0.08437 0.6605,-0.16633 0.985933,-0.233827 0.325432,-0.0675 0.619518,-0.120529 0.937719,-0.183205 0.318201,-0.06268 0.660498,-0.134992 0.98352,-0.216953 0.323021,-0.08196 0.626751,-0.173561 0.911204,-0.236237 0.284453,-0.06268 0.549611,-0.09642 0.795493,-0.11571 0.245883,-0.01928 0.472476,-0.02411 0.653272,-0.02652 0.180796,-0.0024 0.315786,-0.0024 0.421853,0.01446 0.106066,0.01687 0.183203,0.05062 0.238647,0.106066 0.05544,0.05544 0.08919,0.132584 0.09401,0.209722 0.0048,0.07714 -0.01929,0.154275 -0.07714,0.229004 -0.05786,0.07473 -0.149457,0.147046 -0.23865,0.219364 -0.08919,0.07232 -0.175973,0.144636 -0.296502,0.224185 -0.12053,0.07955 -0.274807,0.166331 -0.458014,0.231418 -0.183206,0.06509 -0.395336,0.108477 -0.61229,0.149457 -0.216955,0.04098 -0.438726,0.07955 -0.655682,0.127762 -0.216956,0.04821 -0.429082,0.106065 -0.703893,0.178384 -0.27481,0.07232 -0.612287,0.159098 -0.887096,0.224184 -0.27481,0.06509 -0.486937,0.108476 -0.752105,0.16392 -0.265168,0.05544 -0.583361,0.12294 -0.954596,0.209722 -0.371236,0.08678 -0.795491,0.192845 -1.132976,0.282038 -0.337485,0.08919 -0.588183,0.16151 -0.860581,0.243471 -0.272399,0.08196 -0.566487,0.173562 -0.836475,0.245881 -0.269989,0.07232 -0.515864,0.12535 -0.795495,0.192847 -0.279632,0.0675 -0.593002,0.149456 -1.034147,0.248291 -0.441145,0.09884 -1.010031,0.214541 -1.448762,0.296502 -0.438731,0.08196 -0.74728,0.130171 -1.166729,0.207311 -0.419449,0.07714 -0.949767,0.183204 -1.487334,0.245879 -0.537567,0.06267 -1.082352,0.08196 -1.516261,0.08437 -0.433909,0.0024 -0.756923,-0.01205 -1.007626,-0.02893 -0.250704,-0.01687 -0.429083,-0.03616 -0.535149,-0.07231 -0.106066,-0.03616 -0.139816,-0.08919 -0.166332,-0.161511 -0.02651,-0.07232 -0.0458,-0.163918 -0.05062,-0.255522 -0.0048,-0.09161 0.0048,-0.183205 0.03375,-0.265165 0.02893,-0.08196 0.07714,-0.154279 0.163923,-0.224185 0.08678,-0.06991 0.21213,-0.137402 0.431497,-0.161508 0.219368,-0.02411 0.532737,-0.0048 0.771388,-0.0096 0.23865,-0.0048 0.402568,-0.03375 0.590595,-0.05785 0.188028,-0.0241 0.400157,-0.04339 0.61229,-0.07713 0.212134,-0.03375 0.42426,-0.08196 0.655681,-0.110886 0.23142,-0.02893 0.482116,-0.03857 0.790676,-0.08196 0.30856,-0.04339 0.67496,-0.120529 0.990751,-0.175974 0.315791,-0.05544 0.58095,-0.08919 0.875046,-0.142226 0.294095,-0.05303 0.617109,-0.12535 1.043788,-0.236238 0.426679,-0.110888 0.956999,-0.260342 1.222165,-0.33507 0.265165,-0.07473 0.265159,-0.07473 0.409795,-0.108481 z"
         id="path17" /><path
         style="fill:#000000;fill-opacity:1;stroke:#000000;stroke-width:0.499999;stroke-dasharray:none;stroke-opacity:1"
         d="m 102.90814,73.12286 c -0.082,-0.09162 -0.0916,-0.21694 -0.0819,-0.347108 0.01,-0.130169 0.0386,-0.265173 0.0965,-0.371241 0.0579,-0.106068 0.14463,-0.183197 0.26516,-0.231408 0.12053,-0.04821 0.27481,-0.0675 0.38569,-0.05785 0.11089,0.0096 0.17839,0.04821 0.24588,0.120532 0.0675,0.07232 0.135,0.178381 0.16393,0.274824 0.0289,0.09644 0.0193,0.183191 2e-5,0.260323 -0.0193,0.07713 -0.0482,0.14465 -0.0771,0.202491 -0.0289,0.05784 -0.0579,0.10608 -0.15912,0.163928 -0.10124,0.05785 -0.19052,0.08849 -0.35711,0.109924 -0.18792,0.02418 -0.37416,-0.02103 -0.48195,-0.124415 z"
         id="path18"
         sodipodi:nodetypes="ccsscsccsssc" /><path
         style="fill:#000000;fill-opacity:1;stroke:#000000;stroke-width:0.499999;stroke-dasharray:none;stroke-opacity:1"
         d="m 100.8736,76.179508 c -0.0916,0.02411 -0.12054,-0.08197 -0.135,-0.192856 -0.0145,-0.110884 -0.0145,-0.226589 0.01,-0.337475 0.0241,-0.110886 0.0455,-0.221417 0.0889,-0.346777 0.0434,-0.12536 0.10882,-0.265505 0.17627,-0.376391 0.0675,-0.110886 0.16393,-0.188038 0.25554,-0.202497 0.0916,-0.01446 0.17837,0.03374 0.23622,0.09641 0.0579,0.06267 0.0868,0.139831 0.10127,0.216965 0.0145,0.07713 0.0145,0.154273 -0.0145,0.241066 -0.0289,0.08679 -0.0868,0.18319 -0.14464,0.279627 -0.0579,0.09644 -0.11569,0.192832 -0.22176,0.318187 -0.10607,0.125354 -0.26034,0.279626 -0.35195,0.303737 z"
         id="path19"
         sodipodi:nodetypes="cccscsccccscc" /><path
         style="fill:#000000;fill-opacity:1;stroke:#000000;stroke-width:0.499999;stroke-dasharray:none;stroke-opacity:1"
         d="m 87.155555,73.816044 c -0.04821,-0.101246 -0.07536,-0.225513 -0.118746,-0.413543 -0.04339,-0.188029 -0.03375,-0.361585 0.0096,-0.511043 0.04339,-0.149457 0.12053,-0.274807 0.221778,-0.33266 0.101248,-0.05785 0.226593,-0.04821 0.356767,0.0096 0.130173,0.05786 0.265163,0.163919 0.33266,0.289272 0.0675,0.125353 0.0675,0.269985 0.03375,0.4098 -0.03375,0.139816 -0.101244,0.274806 -0.192849,0.390516 -0.09161,0.11571 -0.207309,0.21213 -0.298918,0.265165 -0.09161,0.05303 -0.123335,0.06938 -0.157083,0.0742 -0.03375,0.0048 -0.06951,0.02715 -0.133362,-0.07408 z"
         id="path20"
         sodipodi:nodetypes="cscscssssccc" /><path
         style="fill:#000000;fill-opacity:1;stroke:#000000;stroke-width:0.499999;stroke-dasharray:none;stroke-opacity:1"
         d="m 139.5409,90.225 c -0.12272,-0.18409 -0.36818,-0.552272 -0.54545,-0.947731 -0.17727,-0.39546 -0.28636,-0.81818 -0.34772,-1.213637 -0.0614,-0.395458 -0.075,-0.763633 -0.0818,-1.056818 -0.007,-0.293184 -0.007,-0.511362 0.0136,-0.743181 0.0205,-0.231819 0.0614,-0.477266 0.12953,-0.647711 0.0682,-0.170446 0.16365,-0.265925 0.27606,-0.341235 0.11241,-0.07531 0.24178,-0.130474 0.38239,-0.164081 0.14062,-0.03361 0.29249,-0.04566 0.44315,-0.03963 0.15066,0.006 0.30012,0.03013 0.48212,0.07232 0.182,0.04219 0.39654,0.10245 0.6147,0.191642 0.21816,0.08919 0.43993,0.207308 0.67256,0.351946 0.23262,0.144637 0.47608,0.315785 0.78946,0.578545 0.31339,0.26276 0.69666,0.617105 1.04259,0.953387 0.34592,0.336282 0.51541,0.565979 0.74682,0.827529 0.23142,0.26155 0.38302,0.494392 0.62562,0.843343 0.29455,0.423681 0.4334,0.726967 0.54035,1.174834 0.0555,0.248299 0.1133,0.554429 0.15188,0.777411 0.0386,0.222982 0.0579,0.362793 0.0748,0.497789 0.0169,0.134997 0.0314,0.265158 0.0386,0.383281 0.007,0.118122 0.007,0.224186 -0.008,0.338685 -0.0157,0.1145 -0.047,0.237455 -0.0916,0.367632 -0.0446,0.130176 -0.10245,0.267564 -0.16873,0.377238 -0.0663,0.109674 -0.14103,0.191649 -0.21816,0.26516 -0.0771,0.07351 -0.1567,0.13862 -0.26156,0.207322 -0.10486,0.0687 -0.23503,0.141019 -0.33747,0.200072 -0.10244,0.05905 -0.17719,0.104866 -0.28084,0.145847 -0.10366,0.04098 -0.23624,0.07714 -0.36882,0.09281 -0.13259,0.01567 -0.26517,0.01084 -0.4086,-0.01326 -0.14343,-0.02411 -0.29771,-0.0675 -0.42909,-0.116914 -0.13137,-0.04942 -0.23985,-0.10486 -0.35918,-0.162715 -0.11932,-0.05786 -0.24949,-0.11812 -0.37122,-0.192848 -0.12174,-0.07473 -0.23504,-0.163921 -0.37124,-0.260346 -0.1362,-0.09642 -0.29529,-0.200077 -0.48814,-0.374848 -0.19285,-0.17477 -0.41944,-0.420644 -0.60024,-0.625547 -0.1808,-0.204903 -0.31579,-0.368821 -0.4327,-0.525502 -0.1169,-0.156681 -0.21575,-0.306152 -0.33447,-0.477729 -0.11872,-0.171576 -0.25733,-0.365271 -0.32663,-0.462119 -0.0693,-0.09685 -0.0694,-0.09684 -0.19212,-0.280932 z"
         id="path21"
         sodipodi:nodetypes="csccccsscssssssscssccssssssssssssssssscc" /><path
         style="fill:#000000;fill-opacity:1;stroke:#000000;stroke-width:0.499999;stroke-dasharray:none;stroke-opacity:1"
         d="m 148.80341,97.885228 c -0.0648,-0.173864 -0.19432,-0.521591 -0.27614,-0.872732 -0.0818,-0.351142 -0.11591,-0.705682 -0.13637,-1.06364 -0.0205,-0.357958 -0.0273,-0.719311 0.0272,-0.992039 0.0545,-0.272729 0.17045,-0.456819 0.31023,-0.589774 0.13977,-0.132955 0.3034,-0.214772 0.4909,-0.25568 0.1875,-0.04091 0.39886,-0.04091 0.61364,-0.01364 0.21477,0.02727 0.43295,0.08182 0.65454,0.163637 0.2216,0.08182 0.44659,0.190907 0.79091,0.398866 0.34433,0.207958 0.80795,0.514767 1.26478,0.9 0.45682,0.385233 0.90681,0.84886 1.28863,1.288635 0.38182,0.439776 0.69545,0.855677 0.94432,1.251135 0.24886,0.395459 0.43295,0.770454 0.56931,1.101132 0.13637,0.330679 0.225,0.617051 0.31023,0.944318 0.0852,0.32728 0.16705,0.69546 0.17728,1.07387 0.0102,0.37842 -0.0511,0.76704 -0.14318,1.05682 -0.0921,0.28977 -0.21478,0.48068 -0.38524,0.63409 -0.17045,0.15341 -0.38863,0.26931 -0.62727,0.34431 -0.23864,0.075 -0.49772,0.1091 -0.76364,0.0682 -0.26591,-0.0409 -0.53863,-0.15682 -0.81136,-0.30682 -0.27273,-0.15 -0.54545,-0.33409 -0.78409,-0.51136 -0.23864,-0.17728 -0.44318,-0.34773 -0.68523,-0.57615 -0.24205,-0.22841 -0.52159,-0.51477 -0.77045,-0.78409 -0.24887,-0.26932 -0.46704,-0.52158 -0.67841,-0.79772 -0.21137,-0.27614 -0.41591,-0.576139 -0.60341,-0.869323 -0.1875,-0.293184 -0.35795,-0.579539 -0.47387,-0.814774 -0.11591,-0.235235 -0.17727,-0.419311 -0.20795,-0.511356 -0.0307,-0.09205 -0.0306,-0.09205 -0.0954,-0.265909 z"
         id="path22" /><path
         style="fill:#000000;fill-opacity:1;stroke:#000000;stroke-width:0.499999;stroke-dasharray:none;stroke-opacity:1"
         d="m 141.94007,100.72967 c -0.0537,-0.22285 -0.12189,-0.59785 -0.16621,-0.92172 -0.0443,-0.323869 -0.0648,-0.596586 -0.0512,-0.811357 0.0136,-0.214772 0.0614,-0.371578 0.10908,-0.494309 0.0477,-0.122731 0.0954,-0.211354 0.19772,-0.279547 0.10228,-0.06819 0.25909,-0.115918 0.40569,-0.136374 0.14659,-0.02046 0.28295,-0.01364 0.4534,0.02727 0.17046,0.04091 0.375,0.115906 0.58978,0.235227 0.21478,0.119322 0.43977,0.282953 0.65114,0.453408 0.21136,0.170456 0.40908,0.347725 0.57613,0.538638 0.16705,0.190914 0.30341,0.395454 0.43636,0.603409 0.13296,0.207955 0.2625,0.419315 0.36323,0.620465 0.10072,0.20115 0.1726,0.39203 0.24078,0.59317 0.0682,0.20115 0.13266,0.4125 0.17853,0.61364 0.0459,0.20114 0.0731,0.39204 0.0902,0.57955 0.017,0.18751 0.0238,0.37158 0.0306,0.54545 0.007,0.17387 -0.0116,0.27429 -0.0457,0.41406 -0.0341,0.13977 -0.0838,0.31889 -0.16903,0.42457 -0.0852,0.10568 -0.18068,0.20114 -0.29659,0.24546 -0.11592,0.0443 -0.25227,0.0375 -0.40227,0.0205 -0.15001,-0.017 -0.31363,-0.0443 -0.4875,-0.0988 -0.17386,-0.0545 -0.35795,-0.13635 -0.54887,-0.2659 -0.19091,-0.12955 -0.38863,-0.30682 -0.61022,-0.51137 -0.2216,-0.20454 -0.46705,-0.43636 -0.675,-0.68182 -0.20796,-0.24545 -0.37841,-0.50454 -0.49514,-0.7317 -0.11672,-0.22715 -0.17973,-0.42237 -0.23086,-0.55534 -0.0511,-0.13297 -0.0904,-0.20367 -0.14409,-0.42653 z"
         id="path23"
         sodipodi:nodetypes="csssssssssssscccsssssssssscc" /><path
         style="fill:#000000;fill-opacity:1;stroke:#000000;stroke-width:0.499999;stroke-dasharray:none;stroke-opacity:1"
         d="m 155.06142,108.79066 c 0.0132,-0.10904 0.0395,-0.32713 0.0825,-0.50775 0.0429,-0.18063 0.10244,-0.32382 0.19108,-0.43291 0.0886,-0.10909 0.2064,-0.18409 0.34028,-0.23182 0.13388,-0.0477 0.28389,-0.0682 0.45775,-0.0614 0.17387,0.007 0.37159,0.0409 0.57273,0.13636 0.20114,0.0955 0.40568,0.25227 0.65796,0.45341 0.25227,0.20114 0.55227,0.44659 0.82159,0.70228 0.26932,0.25568 0.50795,0.52158 0.67778,0.77235 0.16983,0.25078 0.27085,0.48641 0.3677,0.70172 0.0968,0.2153 0.18951,0.41022 0.25149,0.69128 0.062,0.28105 0.0933,0.64818 0.10212,1.00562 0.009,0.35744 -0.005,0.70516 -0.0287,0.99835 -0.0239,0.29318 -0.058,0.53181 -0.12954,0.69885 -0.0716,0.16703 -0.18069,0.2625 -0.30683,0.34432 -0.12614,0.0818 -0.26931,0.15 -0.44317,0.19091 -0.17387,0.0409 -0.37842,0.0545 -0.60683,-0.0102 -0.22841,-0.0648 -0.48067,-0.20795 -0.72272,-0.36818 -0.24205,-0.16023 -0.47386,-0.3375 -0.68864,-0.58636 -0.21477,-0.24887 -0.4125,-0.56932 -0.6,-0.90683 -0.1875,-0.3375 -0.36477,-0.69203 -0.51177,-1.02226 -0.147,-0.33022 -0.26372,-0.6361 -0.33872,-0.91224 -0.075,-0.27614 -0.10826,-0.52252 -0.12785,-0.77529 -0.0196,-0.25278 -0.0255,-0.51197 -0.0284,-0.64155 -0.003,-0.12959 -0.003,-0.12959 0.0102,-0.23863 z"
         id="path24" /><path
         style="fill:#000000;fill-opacity:1;stroke:#000000;stroke-width:0.499999;stroke-dasharray:none;stroke-opacity:1"
         d="m 101.45065,129.46957 c -0.0166,-0.26077 -0.0499,-0.78231 -0.0167,-1.25947 0.0333,-0.47716 0.13315,-0.90991 0.27186,-1.36487 0.13871,-0.45497 0.31626,-0.93212 0.5049,-1.35934 0.18864,-0.42722 0.38838,-0.8045 0.61031,-1.1485 0.22194,-0.34399 0.46606,-0.65469 0.84335,-1.05418 0.37729,-0.39948 0.88772,-0.88772 1.48694,-1.38153 0.59923,-0.4938 1.2872,-0.99313 1.98629,-1.43145 0.6991,-0.43832 1.40927,-0.8156 2.07507,-1.18179 0.6658,-0.36619 1.2872,-0.72128 1.98074,-1.10966 0.69355,-0.38839 1.4592,-0.81005 2.16384,-1.17624 0.70464,-0.36619 1.34823,-0.67689 1.98074,-0.99869 0.63251,-0.32181 1.25391,-0.6547 1.86978,-1.03199 0.61586,-0.37729 1.22617,-0.79895 1.75881,-1.21508 0.53264,-0.41612 0.98759,-0.82669 1.36488,-1.25946 0.37729,-0.43277 0.67689,-0.88772 0.9765,-1.38707 0.29961,-0.49936 0.59921,-1.04308 0.87663,-1.51469 0.27742,-0.47161 0.53263,-0.87108 0.71018,-1.19843 0.17755,-0.32736 0.27741,-0.58257 0.37729,-0.77677 0.0999,-0.19419 0.19973,-0.32734 0.31625,-0.42721 0.11652,-0.0999 0.24967,-0.16645 0.41612,-0.19974 0.16645,-0.0333 0.36619,-0.0333 0.51045,0.061 0.14425,0.0943 0.23302,0.28296 0.2885,0.48825 0.0555,0.20528 0.0777,0.42721 0.0888,0.66024 0.0111,0.23303 0.0111,0.47716 -0.0555,0.87109 -0.0666,0.39393 -0.19973,0.93766 -0.36064,1.42037 -0.1609,0.4827 -0.34954,0.90436 -0.56038,1.30384 -0.21084,0.39949 -0.44386,0.77676 -0.66579,1.10412 -0.22194,0.32735 -0.43277,0.60476 -0.74902,0.95431 -0.31626,0.34954 -0.73792,0.7712 -1.12076,1.08191 -0.38284,0.31071 -0.72682,0.51044 -1.06527,0.74347 -0.33845,0.23303 -0.67134,0.49934 -1.12631,0.78786 -0.45497,0.28851 -1.03198,0.59922 -1.75327,0.96541 -0.72128,0.36619 -1.5868,0.78785 -2.32473,1.17068 -0.73793,0.38284 -1.34823,0.72682 -2.00294,1.04863 -0.65471,0.32181 -1.35378,0.62141 -2.03623,0.96541 -0.68244,0.344 -1.34822,0.73237 -1.96964,1.06527 -0.62141,0.3329 -1.19843,0.61031 -1.74771,0.99315 -0.54929,0.38284 -1.07082,0.87108 -1.54243,1.33714 -0.47161,0.46606 -0.89327,0.90992 -1.20953,1.32604 -0.31625,0.41613 -0.52708,0.8045 -0.74347,1.27611 -0.21638,0.47161 -0.43831,1.02643 -0.48824,1.83094 -0.0499,0.80452 0.0721,1.85868 0.0943,2.45235 0.0222,0.59368 -0.0555,0.72682 -0.40503,0.64914 -0.34955,-0.0777 -0.97094,-0.36618 -1.28165,-0.70463 -0.31071,-0.33845 -0.31071,-0.72683 -0.31071,-0.92102 0,-0.19419 2e-5,-0.19419 -0.0166,-0.45496 z"
         id="path25" /><path
         style="fill:#000000;fill-opacity:1;stroke:#000000;stroke-width:0.499999;stroke-dasharray:none;stroke-opacity:1"
         d="m 104.62984,131.8165 c 0,-0.21083 0,-0.6325 0.0444,-1.01534 0.0444,-0.38284 0.13315,-0.72682 0.25521,-1.06527 0.12207,-0.33845 0.27742,-0.67134 0.44387,-0.9987 0.16645,-0.32735 0.34399,-0.64914 0.52154,-0.92101 0.17755,-0.27187 0.35509,-0.4938 0.58812,-0.73238 0.23303,-0.23857 0.52154,-0.49379 0.79896,-0.69908 0.27741,-0.20529 0.54373,-0.36064 0.78786,-0.4716 0.24413,-0.11097 0.46605,-0.17755 0.6436,-0.19974 0.17754,-0.0222 0.3107,1e-5 0.41058,0.05 0.0999,0.0499 0.16644,0.1276 0.19973,0.21084 0.0333,0.0832 0.0333,0.17198 0.0333,0.27185 0,0.0999 0,0.21084 -0.0555,0.3329 -0.0555,0.12206 -0.16645,0.25522 -0.31626,0.41057 -0.14981,0.15536 -0.33844,0.3329 -0.51044,0.54374 -0.172,0.21084 -0.32735,0.45496 -0.52709,0.72683 -0.19974,0.27187 -0.44386,0.57147 -0.60477,0.84889 -0.1609,0.27742 -0.23857,0.53263 -0.34399,0.85443 -0.10542,0.32181 -0.23858,0.71019 -0.30516,0.9987 -0.0666,0.28851 -0.0666,0.47715 -0.0666,0.69354 0,0.21638 0,0.4605 0.0167,0.66024 0.0166,0.19975 0.0499,0.35509 0.0832,0.49935 0.0333,0.14426 0.0666,0.27741 0.0833,0.39394 0.0166,0.11653 0.0166,0.21637 -0.34955,0.0166 -0.36619,-0.19975 -1.09855,-0.69908 -1.46473,-0.94876 -0.36619,-0.24967 -0.36625,-0.24969 -0.36625,-0.46053 z"
         id="path26" /><path
         style="fill:#000000;fill-opacity:1;stroke:#000000;stroke-width:0.499999;stroke-dasharray:none;stroke-opacity:1"
         d="m 111.93694,134.24666 c -0.0167,-0.14426 -0.05,-0.43277 -0.0666,-0.74347 -0.0166,-0.31071 -0.0166,-0.6436 0.0388,-0.97096 0.0555,-0.32735 0.16645,-0.64915 0.31626,-0.92657 0.14981,-0.27741 0.33845,-0.51043 0.61586,-0.77675 0.27742,-0.26633 0.6436,-0.56593 0.97095,-0.79341 0.32736,-0.22748 0.61586,-0.38283 0.89883,-0.53818 0.28297,-0.15536 0.56037,-0.3107 0.79341,-0.46606 0.23303,-0.15536 0.42167,-0.31071 0.58812,-0.44942 0.16645,-0.13871 0.3107,-0.26077 0.42166,-0.39948 0.11097,-0.13871 0.18864,-0.29405 0.19974,-0.42721 0.0111,-0.13317 -0.0444,-0.24412 -0.13316,-0.3329 -0.0888,-0.0888 -0.21083,-0.15535 -0.3329,-0.18864 -0.12206,-0.0333 -0.24412,-0.0333 -0.43277,0 -0.18864,0.0333 -0.44386,0.0999 -0.6547,0.16645 -0.21084,0.0666 -0.37727,0.13316 -0.57147,0.21084 -0.1942,0.0777 -0.41612,0.16644 -0.61031,0.28295 -0.19419,0.11652 -0.36064,0.26078 -0.55483,0.42168 -0.19419,0.1609 -0.41612,0.33844 -0.61586,0.4938 -0.19974,0.15535 -0.37728,0.28851 -0.58812,0.46606 -0.21084,0.17754 -0.45496,0.39947 -0.71573,0.68799 -0.26077,0.28851 -0.53819,0.6436 -0.76012,0.95431 -0.22193,0.3107 -0.38838,0.57701 -0.5049,0.8045 -0.11651,0.22749 -0.18309,0.41612 -0.23857,0.59367 -0.0555,0.17754 -0.0999,0.344 -0.14981,0.49935 -0.0499,0.15535 -0.10541,0.2996 -0.1276,0.51598 -0.0222,0.21639 -0.0111,0.5049 0.3662,0.69354 0.37729,0.18864 1.12075,0.27742 1.49248,0.3218 0.37174,0.0444 0.37176,0.0444 0.35511,-0.0999 z"
         id="path27" /><path
         style="fill:#000000;fill-opacity:1;stroke:#000000;stroke-width:0.499999;stroke-dasharray:none;stroke-opacity:1"
         d="m 131.60012,133.71402 c 0.20529,-0.0777 0.61586,-0.23302 1.04863,-0.44941 0.43278,-0.21639 0.88773,-0.4938 1.25392,-0.72683 0.36619,-0.23303 0.6436,-0.42167 0.94321,-0.62696 0.29961,-0.20529 0.62141,-0.42722 0.95431,-0.63805 0.3329,-0.21084 0.67689,-0.41057 1.07637,-0.69909 0.39948,-0.28851 0.85443,-0.66579 1.27056,-1.05418 0.41613,-0.38838 0.7934,-0.78785 1.10965,-1.13185 0.31626,-0.34399 0.57148,-0.6325 0.80451,-0.94321 0.23303,-0.31071 0.44387,-0.6436 0.64361,-0.94876 0.19974,-0.30516 0.38837,-0.58257 0.54927,-0.88218 0.1609,-0.29961 0.29406,-0.6214 0.42167,-0.95985 0.12761,-0.33845 0.24968,-0.69354 0.38839,-1.13186 0.13871,-0.43832 0.29406,-0.95985 0.41057,-1.39817 0.11652,-0.43832 0.19419,-0.7934 0.26632,-1.16514 0.0721,-0.37174 0.1387,-0.76011 0.16227,-1.15959 0.0236,-0.39949 0.004,-0.81005 -0.0125,-1.09579 -0.0166,-0.28574 -0.0305,-0.44664 -0.0638,-0.6117 -0.0333,-0.16507 -0.086,-0.33429 -0.14841,-0.50351 -0.0624,-0.16922 -0.13455,-0.33845 -0.22194,-0.50906 -0.0874,-0.17061 -0.19002,-0.3426 -0.2802,-0.44385 -0.0902,-0.10126 -0.16782,-0.13175 -0.24551,-0.13728 -0.0777,-0.006 -0.15532,0.0139 -0.21775,0.0847 -0.0624,0.0707 -0.10958,0.19279 -0.16229,0.35371 -0.0527,0.16091 -0.11097,0.36064 -0.16507,0.72683 -0.0541,0.36619 -0.10403,0.89882 -0.14286,1.27749 -0.0388,0.37867 -0.0666,0.60338 -0.10263,0.81283 -0.0361,0.20945 -0.0804,0.40364 -0.13177,0.62419 -0.0513,0.22055 -0.10957,0.46743 -0.19696,0.71988 -0.0874,0.25245 -0.2039,0.51044 -0.31626,0.75734 -0.11235,0.24691 -0.22054,0.48271 -0.3426,0.73793 -0.12206,0.25522 -0.258,0.52986 -0.37867,0.76289 -0.12068,0.23303 -0.2261,0.42444 -0.37591,0.66579 -0.1498,0.24136 -0.34399,0.53264 -0.49102,0.74903 -0.14704,0.21639 -0.2469,0.35786 -0.33429,0.48131 -0.0874,0.12345 -0.16228,0.22887 -0.27464,0.37312 -0.11235,0.14426 -0.26215,0.32735 -0.42305,0.50351 -0.1609,0.17616 -0.3329,0.34538 -0.57009,0.56732 -0.23719,0.22193 -0.53957,0.49657 -0.96818,0.86831 -0.42861,0.37174 -0.98343,0.84056 -1.37043,1.14988 -0.387,0.30932 -0.60615,0.45912 -0.82669,0.62141 -0.22055,0.16229 -0.44248,0.33706 -0.66858,0.47993 -0.22609,0.14287 -0.45634,0.25383 -0.73376,0.39115 -0.27742,0.13733 -0.60199,0.301 -0.91825,0.45219 -0.31625,0.15119 -0.62417,0.28989 -0.89882,0.41334 -0.27464,0.12345 -0.51599,0.23165 -0.70044,0.33569 -0.18444,0.10403 -0.31194,0.20388 -0.48806,0.29543 -0.17612,0.0915 -0.40079,0.17474 -0.89212,0.38571 -0.49133,0.21097 -1.24916,0.54965 -1.83346,0.7717 -0.58429,0.22205 -0.99498,0.32744 -0.82134,0.36065 0.17364,0.0332 0.93159,-0.006 1.8973,0.0773 0.96571,0.0831 2.1391,0.28832 2.7258,0.39093 0.5867,0.1026 0.58671,0.10251 0.792,0.0248 z"
         id="path28" /><path
         style="fill:#000000;fill-opacity:1;stroke:#000000;stroke-width:0.499999;stroke-dasharray:none;stroke-opacity:1"
         d="m 189.24142,142.90403 c -0.18047,-0.19224 -0.54141,-0.57672 -0.91412,-0.92589 -0.37271,-0.34917 -0.75718,-0.66302 -1.11028,-0.89449 -0.35309,-0.23148 -0.67479,-0.38056 -1.02396,-0.54926 -0.34917,-0.1687 -0.72579,-0.35701 -1.2829,-0.58849 -0.55711,-0.23147 -1.29467,-0.5061 -1.86747,-0.66695 -0.57279,-0.16085 -0.98079,-0.20792 -1.4359,-0.22361 -0.4551,-0.0157 -0.95726,1e-5 -1.43983,0.004 -0.48256,0.004 -0.94549,-0.004 -1.25151,0.051 -0.30601,0.0549 -0.45509,0.17261 -0.54533,0.30208 -0.0902,0.12947 -0.12164,0.2707 -0.0628,0.41978 0.0588,0.14909 0.20792,0.30602 0.47863,0.41979 0.27071,0.11378 0.66302,0.18439 1.03574,0.22363 0.37271,0.0392 0.72579,0.0471 1.07889,0.0746 0.35309,0.0275 0.70619,0.0746 1.05535,0.16086 0.34917,0.0863 0.69441,0.21186 1.1142,0.34525 0.41979,0.13339 0.91411,0.27462 1.40452,0.46294 0.49041,0.18832 0.97688,0.42371 1.43198,0.69441 0.4551,0.27071 0.8788,0.57672 1.25544,0.84742 0.37663,0.27071 0.70618,0.5061 0.99258,0.74542 0.2864,0.23932 0.52963,0.48255 0.73364,0.36485 0.20401,-0.1177 0.36879,-0.59633 0.45117,-0.83564 0.0824,-0.23932 0.0824,-0.23934 -0.098,-0.43158 z"
         id="path29" /><path
         style="fill:#000000;fill-opacity:1;stroke:#000000;stroke-width:0.499999;stroke-dasharray:none;stroke-opacity:1"
         d="m 187.4995,148.61234 c -0.20401,-0.18047 -0.61202,-0.5414 -1.03574,-0.86703 -0.42371,-0.32564 -0.8631,-0.61595 -1.26328,-0.87488 -0.40017,-0.25894 -0.7611,-0.48648 -1.15343,-0.72188 -0.39233,-0.2354 -0.81603,-0.47864 -1.2986,-0.72973 -0.48256,-0.25109 -1.02396,-0.51002 -1.51437,-0.67872 -0.49041,-0.1687 -0.9298,-0.24716 -1.36529,-0.29424 -0.43548,-0.0471 -0.86703,-0.0628 -1.22404,-0.0353 -0.35702,0.0275 -0.63949,0.0981 -0.78858,0.204 -0.14908,0.10593 -0.16478,0.24717 -0.13732,0.40802 0.0275,0.16085 0.0981,0.34132 0.33347,0.51787 0.2354,0.17655 0.63557,0.34917 0.96904,0.47079 0.33348,0.12162 0.60026,0.19223 0.96513,0.29424 0.36486,0.102 0.82779,0.23539 1.20443,0.38055 0.37663,0.14517 0.66694,0.30209 1.03965,0.50218 0.37272,0.20009 0.82781,0.44333 1.19267,0.69442 0.36486,0.25109 0.63948,0.51002 0.93765,0.7768 0.29818,0.26678 0.61987,0.5414 0.8435,0.79642 0.22363,0.25501 0.34917,0.4904 0.51395,0.68264 0.16477,0.19224 0.36878,0.34132 0.70618,0.10984 0.3374,-0.23148 0.80818,-0.84349 1.04358,-1.1495 0.23539,-0.30602 0.23541,-0.306 0.0314,-0.48647 z"
         id="path30" /></g><g
       id="g43"><path
         style="display:inline;fill:#000000;fill-opacity:1;stroke:#000000;stroke-width:0.5;stroke-dasharray:none;stroke-opacity:1"
         d="m 24.865687,136.40577 c -6.346248,0 -19.0387471,0 -25.62063249,0.0471 -6.58188541,0.0471 -7.05312281,0.14137 -7.43798471,0.25918 -0.3848618,0.11782 -0.6833216,0.25919 -0.9189511,0.4477 -0.2356294,0.18851 -0.4084169,0.42413 -0.4948139,0.67547 -0.086397,0.25134 -0.086397,0.51838 -0.062834,0.77757 0.023563,0.25919 0.07069,0.51053 1.9950228,7.42242 1.9243333,6.91189 5.7257213,20.48379 7.67358131533,27.41126 C 1.9469351,180.37397 2.0411825,180.65671 2.1432894,180.85307 c 0.1021068,0.19636 0.2120655,0.30632 0.4084249,0.36915 0.1963594,0.0628 0.4791063,0.0785 8.9069017,0.0864 8.427795,0.008 24.999969,0.008 33.4276,-0.008 8.427631,-0.0157 8.710377,-0.0471 8.985276,-0.10213 0.2749,-0.055 0.541949,-0.13354 0.714745,-0.2435 0.172796,-0.10996 0.251336,-0.25133 0.314171,-0.43198 0.06283,-0.18065 0.10996,-0.40057 -1.343108,-6.74694 -1.453069,-6.34637 -4.406215,-18.8187 -6.016343,-25.6048 -1.610128,-6.7861 -1.877167,-7.88567 -2.112797,-8.63183 -0.23563,-0.74616 -0.43984,-1.13887 -0.746159,-1.46875 -0.306319,-0.32988 -0.714732,-0.59692 -1.193848,-0.8247 -0.479116,-0.22777 -1.028905,-0.41627 -3.086759,-0.54979 -2.057854,-0.13352 -5.623622,-0.21207 -7.406541,-0.25134 -1.782918,-0.0393 -1.782918,-0.0392 -8.129166,-0.0392 z"
         id="path39"
         transform="translate(43.623532,-38.054624)" /><path
         style="fill:#000000;fill-opacity:1;stroke:#000000;stroke-width:0.499999;stroke-dasharray:none;stroke-opacity:1"
         d="m 44.290217,139.83739 c -0.526235,0.10996 -1.578707,0.32988 -2.694025,0.58122 -1.115318,0.25134 -2.293433,0.53409 -3.28308,0.80899 -0.989647,0.2749 -1.790766,0.54194 -2.536928,0.84826 -0.746163,0.30632 -1.437324,0.6519 -2.411266,1.15458 -0.973941,0.50268 -2.230602,1.16242 -3.228101,1.72794 -0.9975,0.56551 -1.735787,1.03676 -2.43482,1.46089 -0.699034,0.42413 -1.35878,0.80113 -1.932146,1.15458 -0.573366,0.35344 -1.060324,0.68332 -1.539438,0.98964 -0.479113,0.30631 -0.950362,0.58906 -1.193846,0.78542 -0.243483,0.19636 -0.259192,0.30631 -0.09425,0.34559 0.164943,0.0393 0.510524,0.008 0.942509,-0.0549 0.431985,-0.0628 0.950366,-0.15707 1.92431,-0.33772 0.973943,-0.18065 2.403392,-0.44769 3.408747,-0.62834 1.005355,-0.18065 1.586554,-0.2749 2.262028,-0.39271 0.675474,-0.11782 1.445175,-0.25919 2.238465,-0.40057 0.79329,-0.14138 1.610116,-0.28275 2.364134,-0.42413 0.754018,-0.14138 1.445178,-0.28275 2.301304,-0.41628 0.856126,-0.13352 1.877161,-0.25919 2.772554,-0.34559 0.895393,-0.0864 1.665096,-0.13352 2.356279,-0.17278 0.691183,-0.0393 1.303802,-0.0707 1.93215,-0.0707 0.628348,0 1.272387,0.0314 1.759353,0.0628 0.486967,0.0314 0.816842,0.0628 1.091736,0.11777 0.274893,0.055 0.494822,0.13352 0.486967,0.26704 -0.0079,0.13352 -0.24348,0.32202 -0.67547,0.55765 -0.431991,0.23563 -1.060321,0.51838 -1.67296,0.84827 -0.612639,0.32988 -1.209552,0.70688 -1.76721,1.0289 -0.557658,0.32203 -1.07603,0.58907 -1.563001,0.90324 -0.48697,0.31418 -0.942508,0.67547 -1.209563,0.90325 -0.267054,0.22779 -0.345577,0.32202 -0.376997,0.41625 -0.03142,0.0942 -0.0157,0.18852 0.08641,0.23565 0.102107,0.0471 0.290607,0.0471 0.557655,-0.008 0.267047,-0.055 0.612628,-0.16494 1.264543,-0.32988 0.651914,-0.16494 1.610116,-0.38486 2.607618,-0.59693 0.997501,-0.21206 2.034245,-0.41627 3.118145,-0.65975 1.0839,-0.24349 2.214894,-0.52624 3.557989,-0.8247 1.343095,-0.29847 2.898209,-0.61263 4.233446,-0.87968 1.335236,-0.26704 2.450519,-0.48696 3.471584,-0.66761 1.021064,-0.18065 1.947848,-0.32202 2.89037,-0.45555 0.942521,-0.13352 1.900723,-0.25919 2.858954,-0.37701 0.958231,-0.11781 1.916433,-0.22777 3.330219,-0.2906 1.413786,-0.0628 3.283065,-0.0785 4.956037,-0.0471 1.672973,0.0314 3.149549,0.10997 4.170609,0.15709 1.02106,0.0471 1.586557,0.0628 2.002834,0.0942 0.416277,0.0314 0.683311,0.0785 0.840402,0.16494 0.15709,0.0864 0.204217,0.21207 0.0864,0.29846 -0.117816,0.0864 -0.400577,0.13352 -0.746166,0.26705 -0.34559,0.13353 -0.754001,0.35344 -1.123154,0.56551 -0.369152,0.21206 -0.699026,0.41627 -1.170288,0.72259 -0.471262,0.30632 -1.083885,0.71474 -1.610125,1.03676 -0.526239,0.32203 -0.966068,0.55765 -1.288098,0.78543 -0.322029,0.22778 -0.526233,0.44769 -0.620487,0.58905 -0.09426,0.14136 -0.07854,0.20423 0.02357,0.23564 0.102107,0.0314 0.290606,0.0314 0.68333,-0.0157 0.392723,-0.0471 0.989626,-0.14137 1.963569,-0.2906 0.973943,-0.14923 2.324851,-0.35344 3.636527,-0.62049 1.311676,-0.26705 2.584041,-0.59692 3.895717,-0.85611 1.311675,-0.2592 2.662582,-0.4477 3.911424,-0.6362 1.248842,-0.1885 2.39554,-0.377 3.526566,-0.52623 1.131027,-0.14923 2.246309,-0.25919 3.330211,-0.35344 1.083901,-0.0943 2.136349,-0.1728 3.016033,-0.22777 0.879684,-0.055 1.586556,-0.0864 2.324866,-0.10207 0.73831,-0.0157 1.50801,-0.0157 2.3013,0.0157 0.79329,0.0314 1.61012,0.0942 2.34842,0.15708 0.73831,0.0628 1.39806,0.12567 2.19921,0.22777 0.80114,0.10211 1.74363,0.24348 2.63117,0.36915 0.88754,0.12567 1.72008,0.23563 2.39555,0.33774 0.67546,0.1021 1.19384,0.19635 1.86931,0.30631 0.67548,0.10996 1.50802,0.23563 2.35629,0.34559 0.84826,0.10996 1.71222,0.20421 2.55264,0.32202 0.84041,0.11782 1.65724,0.25919 2.36413,0.36916 0.7069,0.10996 1.3038,0.1885 1.9243,0.23562 0.62049,0.0471 1.26452,0.0628 1.82218,0.0785 0.55766,0.0157 1.02891,0.0314 1.45304,0.0707 0.42412,0.0393 0.80113,0.1021 0.85611,0.0314 0.055,-0.0707 -0.21206,-0.2749 -1.09961,-0.73831 -0.88755,-0.46341 -2.39554,-1.18599 -3.44016,-1.67295 -1.04462,-0.48697 -1.62583,-0.7383 -2.10494,-0.93466 -0.47912,-0.19636 -0.85611,-0.33773 -1.1153,-0.47126 -0.2592,-0.13352 -0.40057,-0.25918 -0.18064,-0.31416 0.21992,-0.055 0.80112,-0.0393 1.59441,0.008 0.79329,0.0471 1.79862,0.12567 3.47161,0.33774 1.67298,0.21207 4.0135,0.55765 5.85926,0.84041 1.84577,0.28275 3.19668,0.50267 4.65759,0.7383 1.46091,0.23563 3.03173,0.48696 4.48479,0.65975 1.45305,0.1728 2.78825,0.26705 4.12349,0.29847 1.33524,0.0314 2.67044,3e-5 4.00568,-0.0549 1.33523,-0.055 2.67043,-0.13352 3.84858,-0.25919 1.17815,-0.12567 2.19919,-0.29846 3.33022,-0.47125 1.13102,-0.1728 2.37197,-0.34559 0.80892,-1.14674 -1.56304,-0.80115 -5.92992,-2.23059 -10.17127,-4.24131 -4.24135,-2.01072 -8.3569,-4.60258 -11.02736,-6.34624 -2.67046,-1.74366 -3.89571,-2.63903 -5.91428,-2.82752 -2.01858,-0.1885 -4.83035,0.32988 -7.12381,0.69903 -2.29346,0.36915 -4.06849,0.58906 -6.34626,0.54193 -2.27777,-0.0471 -5.05812,-0.36129 -7.61864,-0.94251 -2.56051,-0.58123 -4.90104,-1.42947 -6.42478,-2.08923 -1.52373,-0.65977 -2.230599,-1.13101 -3.251666,-1.35094 -1.021068,-0.21993 -2.356267,-0.18853 -11.396697,1.29595 -9.040429,1.48448 -25.785392,4.42191 -34.158043,5.89066 -8.372651,1.46875 -8.372651,1.46877 -8.898887,1.57873 z"
         id="path40" /><path
         style="display:inline;fill:#f2e8db;fill-opacity:1;stroke:#000000;stroke-width:0.499999;stroke-dasharray:none;stroke-opacity:1"
         d="m 55.576938,117.05202 c 0.16106,-0.11107 0.483184,-0.33323 0.771983,-0.56649 0.2888,-0.23326 0.544269,-0.47762 0.866396,-0.72199 0.322126,-0.24437 0.710885,-0.48874 1.110762,-0.69978 0.399877,-0.21105 0.810852,-0.38877 1.244053,-0.56649 0.433201,-0.17773 0.888602,-0.35545 1.332908,-0.47208 0.444307,-0.11663 0.877501,-0.17216 1.355133,-0.20548 0.477633,-0.0333 0.99968,-0.0444 1.488419,-0.0555 0.48874,-0.0111 0.944143,-0.0222 1.399556,0.0111 0.455412,0.0333 0.910824,0.11107 1.443996,0.24436 0.533172,0.13329 1.144077,0.32212 1.716126,0.56094 0.572048,0.23882 1.105201,0.52761 1.671695,0.8775 0.566495,0.3499 1.166294,0.76087 1.716126,1.20518 0.549833,0.44431 1.049667,0.92193 1.43288,1.28848 0.383213,0.36655 0.64979,0.62202 0.827514,0.83307 0.177724,0.21105 0.266583,0.37766 0.305459,0.56649 0.03888,0.18883 0.02777,0.39987 -0.04443,0.60536 -0.0722,0.2055 -0.205488,0.40543 -0.494291,0.73311 -0.288802,0.32768 -0.733098,0.78308 -1.121868,1.14408 -0.38877,0.361 -0.721992,0.62758 -1.021899,0.86084 -0.299907,0.23326 -0.566484,0.43319 -0.838624,0.60536 -0.27214,0.17217 -0.549824,0.31657 -0.888611,0.46653 -0.338787,0.14995 -0.73865,0.30545 -1.132976,0.4443 -0.394325,0.13885 -0.78308,0.26103 -1.160743,0.34433 -0.377662,0.0833 -0.744214,0.12774 -1.105211,0.15551 -0.360998,0.0278 -0.716437,0.0389 -1.077437,0.05 -0.361,0.0111 -0.727546,0.0222 -1.055223,0.0277 -0.327678,0.006 -0.61647,0.006 -0.955259,-0.0444 -0.33879,-0.05 -0.72754,-0.14995 -1.132973,-0.25547 -0.405433,-0.10553 -0.827511,-0.2166 -1.216283,-0.34434 -0.388771,-0.12774 -0.744209,-0.27213 -1.077439,-0.42209 -0.33323,-0.14995 -0.64424,-0.30545 -0.966364,-0.47207 -0.322123,-0.16662 -0.655345,-0.34434 -1.005239,-0.54983 -0.349893,-0.2055 -0.716434,-0.43875 -1.016343,-0.63869 -0.299909,-0.19994 -0.533164,-0.36655 -0.733099,-0.46652 -0.199935,-0.1 -0.36654,-0.1333 -0.505392,-0.14997 -0.138852,-0.0167 -0.249927,-0.0167 -0.360991,0.0222 -0.111065,0.0389 -0.222166,0.11664 -0.444321,0.26659 -0.222155,0.14996 -0.555372,0.3721 -0.816404,0.5776 -0.261032,0.20549 -0.449859,0.39432 -0.633135,0.54983 -0.183276,0.1555 -0.360995,0.27768 -0.549827,0.41098 -0.188832,0.13329 -0.388765,0.27768 -0.605366,0.40542 -0.216601,0.12774 -0.44986,0.23882 -0.68867,0.32212 -0.23881,0.0833 -0.483183,0.13885 -0.660899,0.14441 -0.177716,0.006 -0.288814,-0.0389 -0.366562,-0.12775 -0.07775,-0.0889 -0.122177,-0.22215 -0.144392,-0.38321 -0.02221,-0.16106 -0.02221,-0.34989 0,-0.51651 0.02222,-0.16661 0.06664,-0.31101 0.127737,-0.51095 0.06109,-0.19994 0.138846,-0.45541 0.233261,-0.70533 0.09441,-0.24992 0.205492,-0.49429 0.288799,-0.74976 0.08331,-0.25548 0.138844,-0.52206 0.188827,-0.722 0.04998,-0.19993 0.09441,-0.33322 0.116628,-0.5165 0.02222,-0.18328 0.02222,-0.41653 -0.06665,-0.70533 -0.08886,-0.28881 -0.266582,-0.63314 -0.416533,-0.95526 -0.149952,-0.32212 -0.272133,-0.62202 -0.377657,-0.89971 -0.105524,-0.2777 -0.194385,-0.53317 -0.299908,-0.79975 -0.105523,-0.26659 -0.227702,-0.54427 -0.327671,-0.81086 -0.09997,-0.26658 -0.177724,-0.52206 -0.222153,-0.71644 -0.04443,-0.19438 -0.05554,-0.32767 0.03332,-0.41098 0.08886,-0.0833 0.27768,-0.11664 0.488732,-0.12221 0.211052,-0.006 0.444309,0.0166 0.683125,0.0833 0.238815,0.0666 0.48318,0.17771 0.794195,0.34988 0.311014,0.17217 0.688669,0.40543 0.983021,0.61648 0.294353,0.21104 0.505396,0.39987 0.72755,0.57759 0.222155,0.17773 0.455411,0.34434 0.660904,0.51095 0.205492,0.16662 0.38321,0.33323 0.538713,0.4332 0.155503,0.1 0.288808,0.13331 0.422097,0.13887 0.13329,0.006 0.266579,-0.0166 0.333223,-0.0277 0.06665,-0.0111 0.06664,-0.0111 0.227701,-0.12214 z"
         id="path41" /><ellipse
         style="fill:#000000;fill-opacity:1;stroke:#000000;stroke-width:0.561719;stroke-dasharray:none;stroke-opacity:1"
         id="path42"
         cx="69.636398"
         cy="118.97086"
         rx="0.51063621"
         ry="0.52729762" /></g></g></svg>
